<svg xmlns="http://www.w3.org/2000/svg" xmlns:xlink="http://www.w3.org/1999/xlink" viewBox="0 0 196.17 200"><defs><style>.cls-1{isolation:isolate;}.cls-2{fill:url(#New_Gradient_Swatch_92);}.cls-3{fill:url(#_ÂÁ_Ï_ÌÌ_È_ËÂÌÚ_3);}.cls-4{fill:url(#_ÂÁ_Ï_ÌÌ_È_ËÂÌÚ_3-2);}.cls-5{fill:#eb924d;}.cls-6{fill:#97dccb;}.cls-7{fill:#77afa3;}.cls-8{fill:#9bc3ad;}.cls-9{fill:#93bea7;}.cls-10{fill:#a2ceb7;}.cls-11{fill:#c4d8ce;}.cls-12,.cls-14{fill:#5f8c82;}.cls-13{fill:#c3d8ce;}.cls-14,.cls-15{mix-blend-mode:multiply;opacity:0.5;}.cls-15{fill:#73aa9e;}</style><linearGradient id="New_Gradient_Swatch_92" y1="100" x2="196.11" y2="100" gradientUnits="userSpaceOnUse"><stop offset="0" stop-color="#692705"/><stop offset="1" stop-color="#823b00"/></linearGradient><linearGradient id="_ÂÁ_Ï_ÌÌ_È_ËÂÌÚ_3" x1="165.16" y1="-56.65" x2="-34.83" y2="405.06" gradientUnits="userSpaceOnUse"><stop offset="0" stop-color="#cf5c2b"/><stop offset="1" stop-color="#59173e"/></linearGradient><linearGradient id="_ÂÁ_Ï_ÌÌ_È_ËÂÌÚ_3-2" x1="143.18" y1="0.39" x2="-56.81" y2="462.1" xlink:href="#_ÂÁ_Ï_ÌÌ_È_ËÂÌÚ_3"/></defs><g class="cls-1"><g id="Layer_2" data-name="Layer 2"><g id="Layer_1-2" data-name="Layer 1"><path class="cls-2" d="M194.18,28.53C193.05,13.6,180.6,1.88,165.37,1.28q-64.31-2.53-128,0A30.5,30.5,0,0,0,24.11,4.83C17.51,8.39,13,14.57,9.55,21,5.9,27.65,2.16,35.08,1.69,42.78Q1.12,52.16.78,61.54a10.92,10.92,0,0,0,0,2,5.17,5.17,0,0,1,.06,1.11,8.72,8.72,0,0,0,1,5.57,7.33,7.33,0,0,0,2.58,2.58c-.12-.06-1,.77-1.11.88a9.18,9.18,0,0,0-1,1.07A9.92,9.92,0,0,0,.92,77.25a9.82,9.82,0,0,0-.67,2.83C-.07,84,0,87.87.06,91.76c0,3.37-.29,7,.26,10.29.14.84,0,1.69.17,2.54a19.17,19.17,0,0,0,2.15,5.32,8.83,8.83,0,0,0-2.22,5.85c-.09,2.48.38,4.88.21,7.4A151.79,151.79,0,0,0,1,143.39a14.84,14.84,0,0,0,.34,2.3c.43,1.89.47,3.84,1.54,5.52a6.92,6.92,0,0,0,1.8,1.9c-.73-.07-1.26.62-1.6,1.25C1,158.3,1,161.36,1.83,165.58c.86,4.38.62,8.59,2.24,12.86a30,30,0,0,0,6,9.68A30.84,30.84,0,0,0,30.88,198c45.13,2.56,88.6,2.79,130.08.25l.55,0a31,31,0,0,0,14.17-4.71,30.54,30.54,0,0,0,10-10.44c2.81-4.87,4.14-10.59,5.54-16,.87-3.32,2.24-7.49,1.86-11.05-.21-2,.37-4,.27-6a15.66,15.66,0,0,0-1.77-6.55,1.88,1.88,0,0,1-.28-.78c0-.66.63-1.11,1.16-1.52a6.19,6.19,0,0,0,2.26-3.81,3.13,3.13,0,0,0,0-1.1,7.48,7.48,0,0,1-.06-1.84q.36-6.93.63-13.89.28-7.6.48-15.23t.24-15c0-4.94,0-9.88,0-14.83q0-3.66-.1-7.33c0-1.21,0-2.43-.07-3.64a25.06,25.06,0,0,1-.07-3.57,4,4,0,0,0,.11-1.14,9.32,9.32,0,0,0-.33-1.46,11.55,11.55,0,0,0-1.21-2.74,11.73,11.73,0,0,0-1.85-2.37c-.19-.19-2.15-2-2.34-1.81a11,11,0,0,0,1.59-1.81,16,16,0,0,0,2.4-5.68c.24-1,.36-2.07.54-3.1a5.5,5.5,0,0,1,.16-.58,9.6,9.6,0,0,0-.09-2.33Q194.54,33.2,194.18,28.53Z"/><path class="cls-3" d="M196.16,65.08c0,5.42-.08,10.81-.1,16.22,0,2.58,0,5.19-.06,7.79,0,1.41,0,2.79,0,4.19-.08,7.36-.18,14.71-.38,22.07-.08,3.65-.18,7.3-.34,11a20.65,20.65,0,0,1-.76,6.28c-.82,2.3-.74,5.08-1,7.48a3.42,3.42,0,0,1-.8,2.12,3.09,3.09,0,0,1-2,.67l-3.63.38c-7,.72-14,1.38-21,1.56a117.62,117.62,0,0,1-15.58-.64l11.8,1.76,3.35.51L189.7,150a4,4,0,0,1,2,.74c.82.71.84,1.94.82,3a45.69,45.69,0,0,1-.51,4.83c-.44,3.19-1.05,6.36-1.18,9.61a16.54,16.54,0,0,1,0,2c-.34,2-1.84,4-3,5.59a30.84,30.84,0,0,1-23.07,12.82c-41.48,2.61-84.95,2.35-130.11-.25a30.6,30.6,0,0,1-17.8-7.1A28.76,28.76,0,0,1,9.45,172c-.77-1.64-1-3.45-1.71-5.11a6.94,6.94,0,0,1-.41-1.07,2.82,2.82,0,0,1,.79-3,6.3,6.3,0,0,1,3.68-.92c14.35-.48,28.71-1.37,43.06-1.78h.43c4.37-.13,8.79-.21,13.16-.21-1.61-.25-3.22-.46-4.85-.64-7.41-.89-14.9-1.17-22.35-1.45-.11,0-.18,0-.26,0h-.08a223,223,0,0,1-26.84-2.12,19.51,19.51,0,0,1-5-1.35A6.86,6.86,0,0,1,6.25,152l-.15-.26A8.83,8.83,0,0,1,5,145.9a25.82,25.82,0,0,0,0-6.34c-.2-3.8-.41-7.63-.58-11.44-.13-2.09-.23-4.16-.34-6.26a4.78,4.78,0,0,1,.64-3.32,4.61,4.61,0,0,1,2.45-1.17,85.42,85.42,0,0,1,8.48-1.84,31.41,31.41,0,0,1,3.84-.46l-9.86-2.22a11,11,0,0,1-2.89-.95,6.48,6.48,0,0,1-.61-.36c-1.64-1.17-2-2.78-2.28-4.52-.07-.59-.15-1.17-.25-1.76-.23-1.35-.41-2.71-.54-4.09-.23-2.09-.33-4.19-.43-6.26-.21-4.57-.44-10.44,2.45-14.27,1-1.38,2.91-1.69,4.6-1.89,6.69-.79,13.38-1.51,20.07-2.07,1.38-.13,2.79-.26,4.17-.36,6.77-.54,13.53-1,20.33-1.28a218.59,218.59,0,0,1-24.55-.3q-7.69-.51-15.35-1.51a20.46,20.46,0,0,1-6.28-1.61L8,71.54a7.08,7.08,0,0,1-3.7-4,7.06,7.06,0,0,1,0-3.65,13.64,13.64,0,0,0,0-1.43c-.1-2.89.13-5.82.2-8.71.06-1.48.11-3,.18-4.44.21-6.47.51-12.9.9-19.34A30.58,30.58,0,0,1,34.78,1.3q64.76-2.59,130.09,0a30.86,30.86,0,0,1,28.81,24.75A35.09,35.09,0,0,1,194,39.16a16.44,16.44,0,0,1-.87,3.14,6.54,6.54,0,0,1-1.15,2.22.24.24,0,0,1-.1.1,3.87,3.87,0,0,1-1.3.36c-2.56.61-5.11,1.15-7.69,1.61-5.11.92-10.29,1.56-15.48,2h-.05c-10.45.92-20.94,1.07-31.42,1.25h-.3c2.86.18,5.75.33,8.61.51,7.79.43,15.58.92,23.34,1.38,5.19.31,10.37.59,15.56.89,3.14.21,6.41.41,9.09,2,0,0,0,0,.05,0C196,57,196.21,61.15,196.16,65.08Z"/><path class="cls-4" d="M196.17,65.07c0,5.42-.08,10.81-.1,16.22,0,2.58,0,5.19,0,7.79,0,1.41,0,2.78,0,4.19-20,1.3-40,3-60,4.27-23.32,1.43-46.67,3-70,4.46-12.57.8-25,1.77-37.55,3.17-8.37,1-16.37,2.33-24.52,1.84-.07-.59-.15-1.17-.25-1.76-.23-1.35-.41-2.71-.54-4.09,8.28-1.73,16.55-1.45,25.31-1.73,11.75-.39,23.35-1.21,35.05-2.28,23.34-2.17,46.69-4.44,70-7.1,13.89-1.61,27.81-3,41.73-4.57l-1.37-.08c-22.81-1.25-45.24-5.46-68-7.51-22.56-2-45.13-3.78-67.76-5.13-9.15-.56-19.65-.41-30-1.15L8,71.53a6.88,6.88,0,0,1-1.46-.89,7.08,7.08,0,0,1-2.25-3.12,7.06,7.06,0,0,1,0-3.65,13.64,13.64,0,0,0,0-1.43c-.1-2.89.13-5.82.21-8.71.05-1.48.1-3,.17-4.44,11.5-.64,23.32.12,33.52.23,22.63.2,45.18,1.3,67.76,2.63s45.31.79,68,1.86c6.13.28,12.28.51,18.41.67C196,57,196.22,61.14,196.17,65.07Zm-74.94,53c-38.54,1.84-79.16.13-116.75,10,.18,3.8.38,7.64.58,11.44a25.82,25.82,0,0,1,0,6.34,8.83,8.83,0,0,0,1.1,5.82,223.17,223.17,0,0,0,34.81,6c.11,0,.21,0,.34,0,7.4.74,14.86,1.17,22.35,1.45,19.31.72,38.74.28,57.62.46,23.6.23,47.23-.25,70.83-1.07a45.69,45.69,0,0,0,.51-4.83c0-1.07,0-2.3-.82-3a4,4,0,0,0-2-.74q-13.72-2-27.41-4.09l-11.8-1.76c12.16,1.38,24.39.33,36.55-.92l3.63-.38a3.13,3.13,0,0,0,2-.67,3.47,3.47,0,0,0,.79-2.12c.28-2.4.2-5.18,1-7.48a20.65,20.65,0,0,0,.76-6.28c.16-3.66.26-7.31.34-11C170.83,116.13,146,116.9,121.23,118.07Z"/><path class="cls-5" d="M6.26,152A8.8,8.8,0,0,1,5,145.89a25.82,25.82,0,0,0,0-6.34c-.33-5.9-.61-11.8-.92-17.7a4.77,4.77,0,0,1,.64-3.32,4.61,4.61,0,0,1,2.46-1.17,84.62,84.62,0,0,1,8.47-1.84,29.19,29.19,0,0,1-5.05,3.19,5.41,5.41,0,0,0-1.84,1.23,4.94,4.94,0,0,0-.9,2.17c-1.6,7.4-.74,15.12.16,22.65.38,3.14.74,6.31,1,9.48A6.86,6.86,0,0,1,6.26,152Z"/><path class="cls-5" d="M3.66,105.25a81.79,81.79,0,0,1-1-10.35c-.21-4.57-.44-10.44,2.45-14.27,1.05-1.38,2.91-1.69,4.6-1.89Q21.85,77.29,34,76.31C26.31,78.86,17.5,78.89,10.07,82a7.08,7.08,0,0,0-3.5,2.56,7.76,7.76,0,0,0-.87,2.8,43.3,43.3,0,0,0-.64,9q.2,2.94.46,5.9.47,4.81,1.28,9.6a6.48,6.48,0,0,1-.61-.36C4,110,4.07,107.6,3.66,105.25Z"/><path class="cls-5" d="M161,145.32c.33.16.67.31,1,.44A2.56,2.56,0,0,1,161,145.32Z"/><path class="cls-5" d="M192.57,153.75c-.21,4.88-1.51,9.58-1.69,14.43a16.68,16.68,0,0,1,0,2c-.34,2-1.84,4-3,5.59a30.84,30.84,0,0,1-23.07,12.82c-41.48,2.61-85,2.35-130.11-.25a30.6,30.6,0,0,1-17.8-7.1,28.76,28.76,0,0,1-7.43-9.3c-.77-1.64-1-3.45-1.71-5.11a6.94,6.94,0,0,1-.41-1.07,2.81,2.81,0,0,1,.79-3,6.32,6.32,0,0,1,3.68-.92c14.35-.48,28.71-1.38,43.06-1.78a313.32,313.32,0,0,0-37.62,4.7,43.34,43.34,0,0,0-5.21.92,1.31,1.31,0,0,0-.74.33,1.44,1.44,0,0,0-.18,1.22A8.15,8.15,0,0,0,13,171.1c2.91,3.8,6,7.76,10.19,10,10.24,5.41,20.69,4.62,32.28,4.34a45.8,45.8,0,0,0,7.05-.44,19.42,19.42,0,0,1,3.81.05l8.14.22,16.28.46,30.44.86a264.86,264.86,0,0,0,29-.29c9.54-.77,19.07-2.58,27.9-6.39a11,11,0,0,0,2.18-1.07c.46-.35.83-.78,1.33-1.1a28.23,28.23,0,0,0,4.15-3.08,9.82,9.82,0,0,0,2.53-3c.26-.61.38-1.32.61-2a20,20,0,0,0,1.08-5.47,35.3,35.3,0,0,0-.21-6.16c-.1-.89,0-2.6-.51-3.37a4.16,4.16,0,0,0-1.5-1,14.84,14.84,0,0,0-4-1.15,96.94,96.94,0,0,1-21.43-6.64Q176,148,189.71,150a4,4,0,0,1,2,.74C192.57,151.45,192.59,152.68,192.57,153.75Z"/><path class="cls-5" d="M4.43,67.48a16.73,16.73,0,0,1-.31-4.64c.2-7.55.39-15.11.81-22.65C5.32,33.26,5.19,26,8,19.52A30.87,30.87,0,0,1,34.79,1.29q64.76-2.59,130.09,0a30.86,30.86,0,0,1,28.81,24.75A35.09,35.09,0,0,1,194,39.15a16.44,16.44,0,0,1-.87,3.14A6.54,6.54,0,0,1,192,44.51c-.89-6.92.8-14.53-1.68-21-1.48-4-3.6-7.84-7-10.42-11.11-8.6-27.49-8-40.83-8.26C105.64,4.1,69,2.93,32.29,6.25c-1.68.15-3.34-.46-5-.18-3.63.61-7.15,3.09-9.81,5.52A31.82,31.82,0,0,0,9.3,23.87C8.82,25.23,8.38,26.61,8,28,4.46,41.68,6,57.52,7.68,71.37a5.24,5.24,0,0,1-3.16-3.59Z"/><path class="cls-5" d="M196.17,65.07c0,5.42-.08,10.81-.1,16.22,0,2.58,0,5.19,0,7.79-.08,12.41-.26,24.83-.75,37.22a20.65,20.65,0,0,1-.76,6.28c-.82,2.3-.74,5.08-1,7.48a3.47,3.47,0,0,1-.79,2.12,3.13,3.13,0,0,1-2,.67l-3.63.38a5.16,5.16,0,0,0,1.66-1.94,10.49,10.49,0,0,0,.82-3.88,605.61,605.61,0,0,0,1.27-65.72c-.07-2.89-.17-5.8-.3-8.69,0-.66.1-1.3,0-1.94a4.63,4.63,0,0,0-1.09-2.35,10.78,10.78,0,0,0-5-3.06c-13.38-4.5-28.35-1.23-41.89-5.29h1.64c13,.74,25.92,1.53,38.9,2.27,3.14.21,6.41.41,9.09,2C196,56.9,196.22,61.11,196.17,65.07Z"/><path class="cls-5" d="M172.72,53.2,166.36,53c-2.16-.09-4.33-.21-6.49-.36l-3.25-.23L155,52.27a7.45,7.45,0,0,0-.94-.08,1.38,1.38,0,0,1-.35,0,4.31,4.31,0,0,1-.62-.15l-2.55-.66-.06-.37a8.81,8.81,0,0,1,1.29,0,5.41,5.41,0,0,0,1.06.08c.28,0,.54-.1.82-.11H155c1.79,0,3.59.05,5.38.13s3.59.19,5.38.34,3.58.33,5.37.55l1.9.24C173,52.68,172.72,52.76,172.72,53.2Z"/><path class="cls-5" d="M46.29,75.37q-8.58.84-17,2.38a1.28,1.28,0,0,1-.43-1.26C34.77,75.75,40.29,75.63,46.29,75.37Z"/><path class="cls-5" d="M159.77,48.39a28.16,28.16,0,0,0-18.26-18.23c-5.07-1.68-9.74-.52-13.16,3.28-1.1,1.22-2.3,2.39-3.57,3.63L123,38.84c-4.25,4.25-4.85,4.86-5.46,5.48l-4.85,4.86a6,6,0,0,0-1.52,1.29l-4,4-.54.53c-6.85-3.48-13-4.94-19.17-4.59a18.5,18.5,0,0,0-12.41,5.26c-7.7,7.63-15.47,15.43-23,23l-8.68,8.7-.11.12c-.19.2-.4.38-.61.57A10.45,10.45,0,0,0,40,91.35a4.27,4.27,0,0,0-.4,1.9l.07,3.69.12,6.78,0,2.58c.06,3.69.13,7.38.17,11.06,0,2.63.12,5.28.2,7.85.16,5.24.33,10.66.06,15.91v.2a8.64,8.64,0,0,0,.17,2.66l.11.76a4.27,4.27,0,0,0,1.22,2.48l.9.9a4.37,4.37,0,0,0,2.15,1.16,5.63,5.63,0,0,0,1.52.31,6.89,6.89,0,0,0,1.42.13A10.64,10.64,0,0,0,49,150l3.69.52,3.72.52,10.26,1.49L70,153l2.55.38c2.16.33,4.4.67,6.61.94l.18,0a8,8,0,0,0,1.66.19,5.79,5.79,0,0,0,4.23-1.77l.18-.18c2.09-2.11,4.07-4.1,6.17-6s4-3.85,5.89-5.77c.57-.58,1.13-1.17,1.71-1.74.21-.05.46-.12.72-.21l1.66-.35a42.13,42.13,0,0,0,5-1.23l1.08-.24c1-.21,1.91-.41,2.82-.56a9.45,9.45,0,0,0,5.32-2.89q6.9-7,13.85-13.88l3.51-3.51a32,32,0,0,0,2.25-2.55,19.54,19.54,0,0,0,4.19-10.77,29.29,29.29,0,0,0-.79-9.46A42.71,42.71,0,0,0,135,83.16q4.38-4.35,8.74-8.74l13.2-13.22a11.38,11.38,0,0,0,2.75-4A12.79,12.79,0,0,0,159.77,48.39Z"/><path class="cls-6" d="M46.76,145.05l.11,0a.9.9,0,0,0-.1-1.3c-.54-.58-1.08-1.18-1.93-.76,0,0,0,0,0,.06,0,.37.34.76-.06,1.11l.9.9C46,144.7,46.4,145.09,46.76,145.05Z"/><path class="cls-6" d="M46.72,145.24l.15-.17-.11,0c-.36,0-.73-.35-1.09,0C46,145,46.33,145.44,46.72,145.24Z"/><path class="cls-6" d="M44.83,143.07s0,0,0-.06l-.21.11h0c0,.35.1.7.14,1.06C45.17,143.83,44.81,143.44,44.83,143.07Z"/><path class="cls-7" d="M126.93,60.35a41.52,41.52,0,0,1,7.17,8.49,19.29,19.29,0,0,1,2.67,5.35,1.22,1.22,0,0,1,.06.59c10.21-10.24,6-6,16.26-16.21a8.15,8.15,0,0,0,2.08-9.29,23.53,23.53,0,0,0-14.24-14.47,10.26,10.26,0,0,0-4.47-.67,6.35,6.35,0,0,0-4.2,2c-7.21,7.24,0,0-7.22,7.23-3.18,3.17-6.3,6.4-9.56,9.49l-.08.06a34.36,34.36,0,0,1,5,2.51A43.76,43.76,0,0,1,126.93,60.35Z"/><path class="cls-7" d="M46.87,143.46c.58.68.6,1.14.05,1.62a8.81,8.81,0,0,0,1.35.13l.19,0a37.73,37.73,0,0,1,4.6-1c3.24-.75,6.49-1.44,9.74-2.15.34-.07.7-.1,1-.14h0a15.87,15.87,0,0,1,4-1.09c4.92-1.07,9.85-2.05,14.78-3.09,3.61-.76,7.22-1.57,10.82-2.36a4.27,4.27,0,0,0,1.39-.49h0c0-.29-.18-.24-.35-.21-1.83.38-3.65.78-5.48,1.12-2.55.48-5,1.18-7.61,1.58-1.94.31-3.86.79-5.79,1.2-3.6.76-7.2,1.54-10.81,2.29q-7.22,1.51-14.45,3a2.28,2.28,0,0,1-.52,0h0c-.53.32-1.11.43-1.53-.08s0-1.1.23-1.57a79.09,79.09,0,0,1,4.29-6.74h0c-.14-.35.07-.59.25-.86q4.86-7.36,9.7-14.72c2.64-4,5.51-7.82,8.3-11.71.83-1.17,1.49-2.47,2.24-3.7.17-.28.18-.73.68-.69a27.91,27.91,0,0,0,2.85-4.14,3,3,0,0,1,2-1.48,29.36,29.36,0,0,1,5.59-.91,1.62,1.62,0,0,0,.47-.21h0c.1-.64.67-.42,1-.48,4.81-.9,9.61-.4,14.4.28a.87.87,0,0,1,.62.35c2.43,0,4.44,1.45,6.69,2.09,3.1.88,4.72,3.55,6.92,5.52a1.53,1.53,0,0,1,.37.74,37.64,37.64,0,0,0,1.39,4.65,4.84,4.84,0,0,1,0,2.39,46.71,46.71,0,0,1-.66,5c0,.46-.38.66-.64.92-1.59,1.61-3.18,3.22-4.79,4.79-3,2.91-5.63,6.11-8.64,9A4.25,4.25,0,0,1,99,133.76a2.41,2.41,0,0,0-.66.24c.35.49.73.22,1,.16,1.72-.33,3.44-.71,5.15-1.09A2.37,2.37,0,0,1,105,133l.6-.18c1.47-.39,3-.68,4.45-1a4.21,4.21,0,0,0,2.1-1.16c6.09-6.1,12.23-12.17,18.27-18.31A15.5,15.5,0,0,0,135,101.19a34.08,34.08,0,0,0-4.59-16.67c-.77-1.4-1.06-1.86-.81-2.37l0,0a65.89,65.89,0,0,0-22-21.87l0-.05c-.41.21-.76,0-1.64-.43a56.54,56.54,0,0,0-5.85-2.73,31.76,31.76,0,0,0-9-2.13c-5.17-.45-9.83.76-13.65,4.62Q62.18,75.11,46.67,90.5l0,0c.3.23.43-.29.55-.41a54.27,54.27,0,0,1,4.92-4.3c2.39-1.85,5-3.41,7.42-5.18A38.43,38.43,0,0,1,70.39,75.4c3.76-1.21,7.81-2.26,11.91-.85,1.14.39,2.54.14,3.49,1,1.63,1.52,3.77,2.49,5,4.48.38.63.66,1.32,1,2a.78.78,0,0,1-.25,1c-2.1,1.89-3.78,4.18-5.84,6.12-2.9,2.74-5.57,5.71-8.24,8.66a68,68,0,0,0-5,7.11q-5,7.19-9.92,14.38c-1.78,2.6-3.52,5.23-5.31,7.83-2.77,4-5.57,8.08-8.35,12.12-.46.67-.92,1.33-1.33,2-.19.33-.38.57-.8.54a.86.86,0,0,1-.8-.72,17,17,0,0,1-.54-4.49c-.16-4.83-.24-9.66-.35-14.48-.09-4.06-.17-8.11-.28-12.17-.06-2.14-.21-4.28-.27-6.43-.05-2,0-3.93-.05-5.9,0-1.43-.08-2.87-.12-4.3a.4.4,0,0,0-.06-.25,5.72,5.72,0,0,0,0,2.33c0,2.68,0,5.37.09,8,.07,3.92.18,7.83.22,11.75q.06,8,.32,16c.14,3.91,0,7.82,0,11.72C45.48,142.45,46.15,142.62,46.87,143.46Z"/><path class="cls-7" d="M48.27,145.21a8.81,8.81,0,0,1-1.35-.13l-.2.16a2.32,2.32,0,0,0,1.35.14l.39-.14Z"/><polygon class="cls-7" points="115.13 52.79 115.13 52.8 115.13 52.79 115.13 52.79"/><path class="cls-7" d="M115.13,52.79h0l.27.11.08-.06c3.26-3.09,6.38-6.32,9.56-9.49,7.23-7.21,0,0,7.22-7.23a6.35,6.35,0,0,1,4.2-2,10.26,10.26,0,0,1,4.47.67,23.53,23.53,0,0,1,14.24,14.47,8.15,8.15,0,0,1-2.08,9.29c-10.28,10.17-6.05,6-16.26,16.21a.78.78,0,0,1-.21.37c-2.32,2.3-4.63,4.61-7,7-.25.51,0,1,.81,2.37A34.08,34.08,0,0,1,135,101.19a15.5,15.5,0,0,1-4.59,11.17c-6,6.14-12.18,12.21-18.27,18.31a4.21,4.21,0,0,1-2.1,1.16c-1.48.32-3,.61-4.45,1l-.6.18a.82.82,0,0,1,.4.1h0c1.45-.29,2.89-.64,4.35-.88a5.15,5.15,0,0,0,3-1.67c5.78-5.83,11.59-11.61,17.39-17.41a29.48,29.48,0,0,0,1.95-2.22,15.12,15.12,0,0,0,3.24-8.45,25.34,25.34,0,0,0-.69-8.09,37.76,37.76,0,0,0-4.4-10.94,1.26,1.26,0,0,1,.24-1.86c4.83-4.77,9.61-9.59,14.4-14.39,7.82-7.82,1.21-1.2,9-9a7.36,7.36,0,0,0,1.78-2.46,8.53,8.53,0,0,0,.07-5.93,23.65,23.65,0,0,0-15.55-15.54c-3.17-1.06-6.17-.64-8.6,2.07-1.75,1.94-3.68,3.72-5.53,5.57L115.13,52.79Z"/><polygon class="cls-7" points="115.13 52.79 115.13 52.79 115.13 52.79 115.13 52.79 115.13 52.79"/><path class="cls-7" d="M46.63,90.54l0,0q15.49-15.4,30.9-30.91c3.82-3.86,8.48-5.07,13.65-4.62a31.76,31.76,0,0,1,9,2.13A56.54,56.54,0,0,1,106,59.83c.88.46,1.23.64,1.64.43l7.47-7.46h0c-.44.05-.64.42-.9.68-1.84,1.82-3.66,3.65-5.48,5.47-1.33,1.33-1.31,1.3-3,.42-5.64-3-11.52-5.08-18.07-4.7a14.35,14.35,0,0,0-9.64,4C67.5,69.18,57,79.78,46.45,90.34h0A.93.93,0,0,0,46.63,90.54Z"/><polygon class="cls-7" points="115.13 52.8 115.13 52.79 115.13 52.79 115.13 52.8"/><path class="cls-7" d="M44.85,131.22q-.27-8-.32-16c0-3.92-.15-7.83-.22-11.75-.05-2.68-.07-5.37-.09-8a5.72,5.72,0,0,1,0-2.33c0-.08-.15-.07-.31.07q.1,5.24.19,10.47.12,6.84.22,13.67c.1,8,.65,16,.25,24a4.9,4.9,0,0,0,.09,1.79h0l.21-.18C44.83,139,45,135.13,44.85,131.22Z"/><path class="cls-7" d="M46.87,143.46c-.72-.84-1.39-1-2-.52,0,0,0,.05,0,.07.85-.42,1.39.18,1.93.76a.9.9,0,0,1,.1,1.3h.05C47.47,144.6,47.45,144.14,46.87,143.46Z"/><path class="cls-7" d="M46.87,145.07l-.15.17.2-.16Z"/><path class="cls-7" d="M44.84,142.94l-.21.18.21-.11S44.84,143,44.84,142.94Z"/><path class="cls-8" d="M44.6,95c0,6.39.31,12.77.42,19.17q.15,9.1.45,18.21a61.46,61.46,0,0,0,.39,7.3c0,.17,0,.35.07.52.1.48.11,1.08.68,1.22s.77-.43,1-.79c2.76-4.24,5.68-8.35,8.53-12.53q5.39-7.92,10.86-15.81c3.21-4.64,6.38-9.33,9.63-13.95a4.28,4.28,0,0,1,.58-.75C79.28,95.65,81,93.39,83,91.47c2.78-2.62,5.19-5.59,7.94-8.24a1.32,1.32,0,0,0,.28-1.7,7.68,7.68,0,0,0-2.56-3.3,18.25,18.25,0,0,1-2.37-1.94,4.07,4.07,0,0,0-2.14-1.09c-1.32-.25-2.64-.51-3.95-.79a7.33,7.33,0,0,0-3.26-.06c-2.4.58-4.94.55-7.24,1.54-2.46,1.07-4.88,2.24-7.34,3.32a16.43,16.43,0,0,0-2.59,1.65q-3.2,2.16-6.38,4.37a47.69,47.69,0,0,0-5.49,4.65,3.58,3.58,0,0,1-1,.81c-.18.08-.36.11-.44,0-.72.74-1.48,1.44-2.17,2.22a1,1,0,0,1,.14.33A6,6,0,0,1,44.6,95Z"/><path class="cls-8" d="M44.3,92.93c.69-.78,1.45-1.48,2.17-2.22a.42.42,0,0,1,0-.37c-.87.93-2,1.62-2.57,2.83h0C44.06,92.79,44.2,92.8,44.3,92.93Z"/><path class="cls-8" d="M44.37,97.65c0,2,0,3.94.05,5.9.06,2.15.21,4.29.27,6.43.11,4.06.19,8.11.28,12.17.11,4.82.19,9.65.35,14.48a17,17,0,0,0,.54,4.49.86.86,0,0,0,.8.72c.42,0,.61-.21.8-.54.41-.7.87-1.36,1.33-2,2.78-4,5.58-8.07,8.35-12.12,1.79-2.6,3.53-5.23,5.31-7.83q5-7.2,9.92-14.38a68,68,0,0,1,5-7.11c2.67-3,5.34-5.92,8.24-8.66,2.06-1.94,3.74-4.23,5.84-6.12a.78.78,0,0,0,.25-1c-.33-.65-.61-1.34-1-2-1.2-2-3.34-3-5-4.48-1-.88-2.35-.63-3.49-1-4.1-1.41-8.15-.36-11.91.85a38.43,38.43,0,0,0-10.87,5.25c-2.44,1.77-5,3.33-7.42,5.18a54.27,54.27,0,0,0-4.92,4.3c-.12.12-.25.64-.55.41l-.16.17c.08.09.26.06.44,0a3.58,3.58,0,0,0,1-.81,47.69,47.69,0,0,1,5.49-4.65q3.18-2.2,6.38-4.37a16.43,16.43,0,0,1,2.59-1.65c2.46-1.08,4.88-2.25,7.34-3.32,2.3-1,4.84-1,7.24-1.54a7.33,7.33,0,0,1,3.26.06c1.31.28,2.63.54,3.95.79a4.07,4.07,0,0,1,2.14,1.09,18.25,18.25,0,0,0,2.37,1.94,7.68,7.68,0,0,1,2.56,3.3,1.32,1.32,0,0,1-.28,1.7c-2.75,2.65-5.16,5.62-7.94,8.24-2,1.92-3.7,4.18-5.76,6.07a4.28,4.28,0,0,0-.58.75c-3.25,4.62-6.42,9.31-9.63,13.95q-5.46,7.89-10.86,15.81c-2.85,4.18-5.77,8.29-8.53,12.53-.24.36-.45.92-1,.79s-.58-.74-.68-1.22c0-.17,0-.35-.07-.52a61.46,61.46,0,0,1-.39-7.3q-.3-9.11-.45-18.21c-.11-6.4-.4-12.78-.42-19.17a6,6,0,0,0-.16-1.69,1,1,0,0,0-.14-.33l-.08.09,0,.08a.4.4,0,0,1,.06.25C44.29,94.78,44.35,96.22,44.37,97.65Z"/><path class="cls-8" d="M46.47,90.71l.16-.17a.93.93,0,0,1-.18-.2h0A.42.42,0,0,0,46.47,90.71Z"/><path class="cls-8" d="M44.19,93.1l0-.08.08-.09c-.1-.13-.24-.14-.42.24h0C44,93,44.14,93,44.19,93.1Z"/><path class="cls-9" d="M98.26,134.06c-.09-.53.6-.59,1-.67a3.86,3.86,0,0,0,2-1.14c4.66-4.62,9-9.56,13.78-14.07a2.25,2.25,0,0,0,.21-.24,16.28,16.28,0,0,1-2.49,1c-3.12,1.16-6.22,2.4-9.31,3.64Q97.54,125,91.6,127.32c-5.59,2.2-11.19,4.35-16.78,6.55q-9.66,3.81-19.31,7.67c-1.69.67-3.42,1.27-5.07,2.06,3.52-.62,7-1.48,10.49-2.19,5.46-1.1,10.9-2.31,16.37-3.4s11-2.37,16.47-3.4c.37-.07,1-.59,1.2.29a9.53,9.53,0,0,0,2.3-.55,1.16,1.16,0,0,1,1.17.16l.1,0h0C98.43,134.43,98.31,134.32,98.26,134.06Z"/><path class="cls-9" d="M98.59,134.47h0l-.1,0a1.44,1.44,0,0,1,.19.22h0a65.12,65.12,0,0,0,6.76-1.61c-2,.32-3.92.84-5.89,1.2A2.29,2.29,0,0,1,98.59,134.47Z"/><path class="cls-9" d="M104.47,133.07c-1.71.38-3.43.76-5.15,1.09-.29.06-.67.33-1-.16a2.41,2.41,0,0,1,.66-.24,4.25,4.25,0,0,0,2.71-1.44c3-2.88,5.67-6.08,8.64-9,1.61-1.57,3.2-3.18,4.79-4.79.26-.26.64-.46.64-.92-.16.12-.32.22-.48.32a2.25,2.25,0,0,1-.21.24c-4.77,4.51-9.12,9.45-13.78,14.07a3.86,3.86,0,0,1-2,1.14c-.43.08-1.12.14-1,.67,0,.26.17.37.33.41,2.14-.47,4.29-.85,6.4-1.46A2.37,2.37,0,0,0,104.47,133.07Z"/><path class="cls-9" d="M93.77,134.61c-5.51,1-11,2.31-16.47,3.4s-10.91,2.3-16.37,3.4c-3.5.71-7,1.57-10.49,2.19l-.57.28h0a2.28,2.28,0,0,0,.52,0q7.23-1.48,14.45-3c3.61-.75,7.21-1.53,10.81-2.29,1.93-.41,3.85-.89,5.79-1.2,2.56-.4,5.06-1.1,7.61-1.58,1.83-.34,3.65-.74,5.48-1.12.17,0,.37-.08.35.21H95C94.8,134,94.14,134.54,93.77,134.61Z"/><path class="cls-9" d="M105,133c-2.11.61-4.26,1-6.4,1.46a2.29,2.29,0,0,0,.91-.15c2-.36,3.91-.88,5.89-1.2h0A.82.82,0,0,0,105,133Z"/><path class="cls-10" d="M81.64,138.75c-4.55.82-9.06,1.88-13.61,2.71-1.2.22-2.39.56-3.61.66a.74.74,0,0,1-.37-.06l-.12.06c-4.94,1-9.86,2.18-14.81,3.17l-.18,0c3.76.59,7.52,1.1,11.29,1.63q7.13,1,14.25,2.08c2,.29,3.93.44,5.88.82a2,2,0,0,0,1.9-.64c4.36-4.48,9.09-8.58,13.41-13.11.22-.24.45-.46.69-.68-2.44.43-4.77,1.31-7.2,1.76S84.16,138.3,81.64,138.75Z"/><path class="cls-10" d="M95.67,136.09c-4.32,4.53-9,8.63-13.41,13.11a2,2,0,0,1-1.9.64c-2-.38-3.92-.53-5.88-.82q-7.12-1.07-14.25-2.08c-3.77-.53-7.53-1-11.29-1.63a3.2,3.2,0,0,0-.87.07c.52.12,1,.28,1.55.35,2.47.36,4.94.68,7.41,1,4.53.65,9,1.32,13.57,2,3,.45,6.05.94,9.08,1.31.8.09,1.65.52,2.48-.31,2.13-2.16,4.27-4.31,6.52-6.35,2.82-2.56,5.43-5.37,8.13-8.06l-.45.08C96.12,135.63,95.89,135.85,95.67,136.09Z"/><path class="cls-10" d="M63.93,142.12l.12-.06a.8.8,0,0,1-.21-.13c-.34,0-.7.07-1,.14-3.25.71-6.5,1.4-9.74,2.15a37.73,37.73,0,0,0-4.6,1l.48.07.18,0C54.07,144.3,59,143.14,63.93,142.12Z"/><path class="cls-10" d="M48.94,145.31l-.48-.07-.39.14A3.2,3.2,0,0,1,48.94,145.31Z"/><path class="cls-11" d="M96.15,134.92c-.39.09-.8.38-1.19.06a2.28,2.28,0,0,1-1.47.67c-5.43,1.28-10.89,2.41-16.35,3.53-3.85.78-7.72,1.55-11.55,2.45,2.4-.43,4.79-.93,7.19-1.37,3.23-.6,6.45-1.21,9.66-1.89,3.86-.82,7.74-1.58,11.54-2.71a5.28,5.28,0,0,1,2.54-.41l.06-.05a3.66,3.66,0,0,1,1.55-.61A5.68,5.68,0,0,0,96.15,134.92Z"/><path class="cls-11" d="M96.58,135.2l-.06.05a1.57,1.57,0,0,1,.29.08c.53-.44,1.23-.33,1.82-.6a2.34,2.34,0,0,0-.5-.14A3.66,3.66,0,0,0,96.58,135.2Z"/><path class="cls-11" d="M65.59,141.63c3.83-.9,7.7-1.67,11.55-2.45,5.46-1.12,10.92-2.25,16.35-3.53A2.28,2.28,0,0,0,95,135l-.08-.08h0a4.27,4.27,0,0,1-1.39.49c-3.6.79-7.21,1.6-10.82,2.36-4.93,1-9.86,2-14.78,3.09a15.87,15.87,0,0,0-4,1.09h0Z"/><path class="cls-11" d="M97.27,134.35a9.53,9.53,0,0,1-2.3.55s0,0,0,0l0,0c.39.32.8,0,1.19-.06a5.68,5.68,0,0,1,2-.33l.31-.08A1.16,1.16,0,0,0,97.27,134.35Z"/><path class="cls-11" d="M98.44,134.51l-.31.08a2.34,2.34,0,0,1,.5.14h0A1.44,1.44,0,0,0,98.44,134.51Z"/><path class="cls-11" d="M95,135l0,0s0,0,0,0h-.09Z"/><path class="cls-11" d="M94,135.66c-3.8,1.13-7.68,1.89-11.54,2.71-3.21.68-6.43,1.29-9.66,1.89-2.4.44-4.79.94-7.19,1.37l-.56.13a6.91,6.91,0,0,0-1,.3.74.74,0,0,0,.37.06c1.22-.1,2.41-.44,3.61-.66,4.55-.83,9.06-1.89,13.61-2.71,2.52-.45,5-1.11,7.52-1.58s4.76-1.33,7.2-1.76l.16-.16A5.28,5.28,0,0,0,94,135.66Z"/><path class="cls-11" d="M96.36,135.41l.45-.08a1.57,1.57,0,0,0-.29-.08Z"/><path class="cls-11" d="M65,141.76l.56-.13-1.75.3h0a.8.8,0,0,0,.21.13A6.91,6.91,0,0,1,65,141.76Z"/><path class="cls-10" d="M50.9,143.07c7.13-2.89,14.31-5.66,21.46-8.51,4.79-1.91,9.58-3.82,14.38-5.69,4.61-1.79,9.19-3.63,13.78-5.46s9.28-3.59,13.91-5.42a4.27,4.27,0,0,1,1-.36,43.93,43.93,0,0,0,.84-6.46,2.67,2.67,0,0,0-.21-1,10,10,0,0,1-.55-1.82c-.43-3.54-3.18-5.43-5.46-7.61a7.93,7.93,0,0,0-3-1.33c-2-.72-3.85-1.79-6-1.93a3.11,3.11,0,0,0-.41-.2,47.82,47.82,0,0,1-6.77-.19c-2.57-.13-5.1.36-7.66.32-.41,0-.8.07-1.12-.19l-.14.13a1.87,1.87,0,0,1-1.1.28,32,32,0,0,0-4.66.82,3.32,3.32,0,0,0-2.26,1.69A17.76,17.76,0,0,1,74.11,104l-.12.15a8.84,8.84,0,0,1-1.85,3.3c-3.52,5.23-7.4,10.2-10.71,15.57-2.4,3.87-5,7.58-7.56,11.37a4.84,4.84,0,0,1-.75.82,1.41,1.41,0,0,0-.06.22c-.85,1.71-2.05,3.21-3,4.83a20.25,20.25,0,0,0-1.19,2.13c-.51,1.07-.3,1.36.91,1.31l.2,0C50.11,143.3,50.54,143.21,50.9,143.07Z"/><path class="cls-10" d="M74.11,104a17.76,17.76,0,0,0,2.82-3.91,3.32,3.32,0,0,1,2.26-1.69,32,32,0,0,1,4.66-.82,1.87,1.87,0,0,0,1.1-.28l.14-.13a.68.68,0,0,1-.12-.12h0a1.62,1.62,0,0,1-.47.21,29.36,29.36,0,0,0-5.59.91,3,3,0,0,0-2,1.48A27.91,27.91,0,0,1,74,103.81c0,.12,0,.24,0,.36Z"/><path class="cls-10" d="M49.74,143.72c-1.21.05-1.42-.24-.91-1.31A20.25,20.25,0,0,1,50,140.28c1-1.62,2.19-3.12,3-4.83a1.41,1.41,0,0,1,.06-.22l-.26.26h0a79.09,79.09,0,0,0-4.29,6.74c-.24.47-.68,1-.23,1.57s1,.4,1.53.08a.84.84,0,0,1,.07-.19Z"/><path class="cls-10" d="M101.05,97.45c2.16.14,4,1.21,6,1.93a7.93,7.93,0,0,1,3,1.33c2.28,2.18,5,4.07,5.46,7.61a10,10,0,0,0,.55,1.82,2.67,2.67,0,0,1,.21,1,43.93,43.93,0,0,1-.84,6.46,1.82,1.82,0,0,1,.33,0,46.71,46.71,0,0,0,.66-5,4.84,4.84,0,0,0,0-2.39,37.64,37.64,0,0,1-1.39-4.65,1.53,1.53,0,0,0-.37-.74c-2.2-2-3.82-4.64-6.92-5.52-2.25-.64-4.26-2-6.69-2.09l-.37,0A3.11,3.11,0,0,1,101.05,97.45Z"/><path class="cls-10" d="M115.41,117.63a4.27,4.27,0,0,0-1,.36c-4.63,1.83-9.28,3.59-13.91,5.42s-9.17,3.67-13.78,5.46c-4.8,1.87-9.59,3.78-14.38,5.69-7.15,2.85-14.33,5.62-21.46,8.51-.36.14-.79.23-1,.62l.5-.09c1.65-.79,3.38-1.39,5.07-2.06q9.66-3.84,19.31-7.67c5.59-2.2,11.19-4.35,16.78-6.55q5.94-2.32,11.86-4.72c3.09-1.24,6.19-2.48,9.31-3.64a16.28,16.28,0,0,0,2.49-1,1,1,0,0,0,.14-.28Z"/><path class="cls-10" d="M115.41,117.63v0a1,1,0,0,1-.14.28c.16-.1.32-.2.48-.32A1.82,1.82,0,0,0,115.41,117.63Z"/><path class="cls-10" d="M50.44,143.6l-.5.09a.84.84,0,0,0-.07.19h0Z"/><path class="cls-12" d="M115.08,53.1a2.77,2.77,0,0,1-.78,1c-1.79,1.81-3.58,3.62-5.41,5.39-.58.56-.6.83.13,1.31a67.36,67.36,0,0,1,11.59,9.37,63.67,63.67,0,0,1,7.7,9.54c1.31,2,1.34,2,3,.3,1.47-1.48,2.92-3,4.43-4.41a1.79,1.79,0,0,0,.43-2.29A40.73,40.73,0,0,0,130,63.87a42.57,42.57,0,0,0-8.86-7.65,33.33,33.33,0,0,0-5-2.67c-.31-.13-.68-.2-.85-.52l0,0Z"/><path class="cls-12" d="M115.08,53.1l.09-.05,0,0a1.25,1.25,0,0,1-.07-.23A.94.94,0,0,1,115.08,53.1Z"/><path class="cls-12" d="M129.58,82.18l0,0a8.3,8.3,0,0,1,1.33-1.44l5.9-5.93a1.22,1.22,0,0,0-.06-.59,19.29,19.29,0,0,0-2.67-5.35,41.52,41.52,0,0,0-7.17-8.49,43.76,43.76,0,0,0-6.53-4.94,34.36,34.36,0,0,0-5-2.51l-.2.13c.17.32.54.39.85.52a33.33,33.33,0,0,1,5,2.67A42.57,42.57,0,0,1,130,63.87a40.73,40.73,0,0,1,6.21,9.43,1.79,1.79,0,0,1-.43,2.29c-1.51,1.43-3,2.93-4.43,4.41-1.66,1.66-1.69,1.68-3-.3a63.67,63.67,0,0,0-7.7-9.54A67.36,67.36,0,0,0,109,60.79c-.73-.48-.71-.75-.13-1.31,1.83-1.77,3.62-3.58,5.41-5.39a2.77,2.77,0,0,0,.78-1,4,4,0,0,0-.88.77c-1.85,1.84-3.7,3.7-5.55,5.55a4.47,4.47,0,0,1-1,.84l0,.05A65.89,65.89,0,0,1,129.58,82.18Z"/><polygon class="cls-12" points="115.13 52.79 115.13 52.79 115.13 52.79 115.13 52.79 115.13 52.79"/><polygon class="cls-12" points="115.13 52.8 115.13 52.79 115.13 52.8 115.13 52.8 115.13 52.8"/><path class="cls-12" d="M114.2,53.87a4,4,0,0,1,.88-.77.94.94,0,0,0,0-.3h0l-7.47,7.46a4.47,4.47,0,0,0,1-.84C110.5,57.57,112.35,55.71,114.2,53.87Z"/><path class="cls-12" d="M115.2,53l.2-.13-.27-.11h0A1.25,1.25,0,0,0,115.2,53Z"/><path class="cls-12" d="M129.6,82.15c2.39-2.39,4.7-4.7,7-7a.78.78,0,0,0,.21-.37l-5.9,5.93A8.3,8.3,0,0,0,129.6,82.15Z"/><path class="cls-13" d="M73,105.61c.13-.22.26-.44.38-.67C73.28,105.16,73.15,105.38,73,105.61Z"/><path class="cls-13" d="M64.21,118.31c2-3,4.22-5.9,6.32-8.85.89-1.25,1.73-2.53,2.5-3.85.12-.23.25-.45.38-.67.21-.37.42-.75.62-1.13-.5,0-.51.41-.68.69-.75,1.23-1.41,2.53-2.24,3.7-2.79,3.89-5.66,7.72-8.3,11.71q-4.86,7.35-9.7,14.72c-.18.27-.39.51-.25.86,1.14-1.78,2.34-3.51,3.52-5.26C59,126.29,61.61,122.29,64.21,118.31Z"/><path class="cls-13" d="M53.87,134.41c2.51-3.79,5.16-7.5,7.56-11.37,3.31-5.37,7.19-10.34,10.71-15.57a8.84,8.84,0,0,0,1.85-3.3,5.35,5.35,0,0,0-.58.77c-.12.23-.25.45-.38.67s-.39.73-.6,1.08c-1.73,2.79-3.78,5.36-5.69,8-2.69,3.76-5.11,7.69-7.68,11.53-1.85,2.75-3.66,5.53-5.51,8.28a3.45,3.45,0,0,0-.43.71A4.84,4.84,0,0,0,53.87,134.41Z"/><path class="cls-13" d="M53.12,135.23a3.45,3.45,0,0,1,.43-.71c1.85-2.75,3.66-5.53,5.51-8.28,2.57-3.84,5-7.77,7.68-11.53,1.91-2.66,4-5.23,5.69-8,.21-.35.4-.72.6-1.08-.77,1.32-1.61,2.6-2.5,3.85-2.1,3-4.34,5.81-6.32,8.85-2.6,4-5.17,8-7.83,11.92-1.18,1.75-2.38,3.48-3.52,5.26h0Z"/><path class="cls-13" d="M74,104.17c0-.12,0-.24,0-.36-.2.38-.41.76-.62,1.13A5.35,5.35,0,0,1,74,104.17Z"/><path class="cls-11" d="M90.56,96.86a46.46,46.46,0,0,1,7.08.12c.77,0,1.55,0,2.32.06a20.88,20.88,0,0,0-2.61-.31,36.63,36.63,0,0,0-11.16.07,3.24,3.24,0,0,0-.93.28A40.79,40.79,0,0,0,90.56,96.86Z"/><path class="cls-11" d="M86.19,96.8a36.63,36.63,0,0,1,11.16-.07A20.88,20.88,0,0,1,100,97a5.24,5.24,0,0,1,1.05.18.87.87,0,0,0-.62-.35c-4.79-.68-9.59-1.18-14.4-.28-.35.06-.92-.16-1,.48h.29A3.24,3.24,0,0,1,86.19,96.8Z"/><path class="cls-11" d="M86.21,97.38c2.56,0,5.09-.45,7.66-.32a47.82,47.82,0,0,0,6.77.19A4.11,4.11,0,0,0,100,97c-.77-.07-1.55,0-2.32-.06a46.46,46.46,0,0,0-7.08-.12,40.79,40.79,0,0,1-5.3.22l-.17.11C85.41,97.45,85.8,97.37,86.21,97.38Z"/><path class="cls-11" d="M100.64,97.25l.37,0A5.24,5.24,0,0,0,100,97,4.11,4.11,0,0,1,100.64,97.25Z"/><path class="cls-11" d="M85.26,97.08H85a.68.68,0,0,0,.12.12Z"/><path class="cls-14" d="M154.25,47c-.56.59-28.56,27.74-28.56,27.74s3.11,3.13,3.91,6.43c0,0,22.93-22.34,24.65-24.46A7.13,7.13,0,0,0,155.4,50C154.72,48.12,154.25,47,154.25,47Z"/><path class="cls-15" d="M129.6,81.21c-.45.29,1.54,3.06,4.07,10s2.23,13.65-.17,17.56-22.15,22.93-22.15,22.93l-14.54,3.68,4.06-2.32,14.87-15.39a34.33,34.33,0,0,0-.75-12.05s13.14-7.29,12.79-10.8a29.85,29.85,0,0,0-2-7.38Z"/></g></g></g></svg>