<svg width="32" height="32" viewBox="0 0 32 32" fill="none" xmlns="http://www.w3.org/2000/svg">
<path d="M0 16C0 24.8366 7.16344 32 16 32C24.8366 32 32 24.8366 32 16C32 7.16344 24.8366 0 16 0C7.16344 0 0 7.16344 0 16Z" fill="#547841"/>
<circle cx="16.5" cy="15.5" r="8.5" fill="white"/>
<path d="M26 14C26 8.5 21.5 4 16 4C10.5 4 6 8.5 6 14C6 19 9.625 23.125 14.375 23.875V16.875H11.875V14H14.375V11.75C14.375 9.25 15.875 7.875 18.125 7.875C19.25 7.875 20.375 8.125 20.375 8.125V10.625H19.125C17.875 10.625 17.5 11.375 17.5 12.125V14H20.25L19.75 16.875H17.375V24C22.375 23.25 26 19 26 14Z" fill="#547841"/>
</svg>
